<svg xmlns="http://www.w3.org/2000/svg" width="22" height="22"><path fill="#808285" d="M15.05 18.53c0 .24.32.58.58.58h.58c.26 0 .58-.34.58-.58V2.92s-1.7-.53-2.74 3.15c-.2.85-.73 2.44-.73 3.82s.45 2.92.45 2.92.25 1.08.7 1.08h.58v4.63zm-7.52.58h.58c.26 0 .57-.33.57-.58V11C10 10.41 11 8.54 11 6.95V3.47c0-.25-.23-.58-.58-.58s-.58.34-.58.58v2.9c0 1.04-.87 1.7-1.16 1.74L8.4 3.47c0-.24-.3-.58-.58-.58-.26 0-.57.33-.57.58l-.3 4.64A1.86 1.86 0 0 1 5.8 6.37v-2.9c0-.24-.29-.58-.58-.58s-.58.33-.58.58v3.48c0 1.62 1 3.48 2.32 4.05v7.53c0 .25.3.58.58.58z"/></svg>